HIERARCHY
ROOT joint_Root
{
	OFFSET 0.0 0.0 0.0
	CHANNELS 6 Xposition Yposition Zposition Zrotation Xrotation Yrotation 
	JOINT Hips
	{
		OFFSET -17.1583 93.1646 452.98
		CHANNELS 6 Xposition Yposition Zposition Zrotation Xrotation Yrotation 
		JOINT Spine
		{
			OFFSET 15.7357 0.0 0.0
			CHANNELS 6 Xposition Yposition Zposition Zrotation Xrotation Yrotation 
			JOINT Chest
			{
				OFFSET 8.98455 -0.406207 0.0
				CHANNELS 6 Xposition Yposition Zposition Zrotation Xrotation Yrotation 
				JOINT Neck
				{
					OFFSET 16.3773 0.0 0.0
					CHANNELS 6 Xposition Yposition Zposition Zrotation Xrotation Yrotation 
					JOINT Head
					{
						OFFSET 6.45672 0.0 0.0
						CHANNELS 6 Xposition Yposition Zposition Zrotation Xrotation Yrotation 
						End Site
						{
							OFFSET 0.0 0.0 0.0
						}
					}
				}
				JOINT Shoulder_L
				{
					OFFSET 12.9942 -0.242716 4.98039
					CHANNELS 6 Xposition Yposition Zposition Zrotation Xrotation Yrotation 
					JOINT UpperArm_L
					{
						OFFSET 5.34809 0.0 0.0
						CHANNELS 6 Xposition Yposition Zposition Zrotation Xrotation Yrotation 
						JOINT LowerArm_L
						{
							OFFSET 24.3286 1.87007e-05 0.0
							CHANNELS 6 Xposition Yposition Zposition Zrotation Xrotation Yrotation 
							JOINT Hand_L
							{
								OFFSET 22.2916 0.0 0.0
								CHANNELS 6 Xposition Yposition Zposition Zrotation Xrotation Yrotation 
								End Site
								{
									OFFSET 0.0 0.0 0.0
								}
							}
						}
					}
				}
				JOINT Shoulder_R
				{
					OFFSET 12.9945 -0.242716 -4.98039
					CHANNELS 6 Xposition Yposition Zposition Zrotation Xrotation Yrotation 
					JOINT UpperArm_R
					{
						OFFSET -5.34813 0.0 0.0
						CHANNELS 6 Xposition Yposition Zposition Zrotation Xrotation Yrotation 
						JOINT LowerArm_R
						{
							OFFSET -24.3289 0.000322201 0.0
							CHANNELS 6 Xposition Yposition Zposition Zrotation Xrotation Yrotation 
							JOINT Hand_R
							{
								OFFSET -22.2915 -0.000108084 0.0
								CHANNELS 6 Xposition Yposition Zposition Zrotation Xrotation Yrotation 
								End Site
								{
									OFFSET 0.0 0.0 0.0
								}
							}
						}
					}
				}
			}
		}
		JOINT UpperLeg_L
		{
			OFFSET -2.19248 -6.46944 0.0
			CHANNELS 6 Xposition Yposition Zposition Zrotation Xrotation Yrotation 
			JOINT LowerLeg_L
			{
				OFFSET 39.0811 0.0 -1.23785e-05
				CHANNELS 6 Xposition Yposition Zposition Zrotation Xrotation Yrotation 
				JOINT Foot_L
				{
					OFFSET 40.9854 0.0 -1.26872e-05
					CHANNELS 6 Xposition Yposition Zposition Zrotation Xrotation Yrotation 
					JOINT Toes_L
					{
						OFFSET 11.7543 0.0 0.0
						CHANNELS 6 Xposition Yposition Zposition Zrotation Xrotation Yrotation 
						End Site
						{
							OFFSET 0.0 0.0 0.0
						}
					}
				}
			}
		}
		JOINT UpperLeg_R
		{
			OFFSET -2.19251 6.46944 0.0
			CHANNELS 6 Xposition Yposition Zposition Zrotation Xrotation Yrotation 
			JOINT LowerLeg_R
			{
				OFFSET -39.0811 -0.00228153 -0.0401928
				CHANNELS 6 Xposition Yposition Zposition Zrotation Xrotation Yrotation 
				JOINT Foot_R
				{
					OFFSET -40.9854 0.0 0.0
					CHANNELS 6 Xposition Yposition Zposition Zrotation Xrotation Yrotation 
					JOINT Toes_R
					{
						OFFSET -11.7543 0.0 0.0
						CHANNELS 6 Xposition Yposition Zposition Zrotation Xrotation Yrotation 
						End Site
						{
							OFFSET 0.0 0.0 0.0
						}
					}
				}
			}
		}
	}
}
MOTION
Frames:	4
Frame Time:	0.0333333
0.000000 0.000000 0.000000 0.000000 0.000000 -0.000000 -0.057363 92.924600 -0.098145 86.566700 0.189652 0.826002 15.735700 0.000005 -0.000001 65.344900 86.937600 -63.407200 8.984550 -0.406207 -0.000000 -2.151510 -2.721900 3.824460 16.377300 -0.000001 -0.000001 4.976990 1.985070 -1.975410 6.456720 -0.000001 -0.000000 1.505550 1.810590 -2.175860 12.994200 -0.242716 4.980390 -92.646000 8.014250 -71.661000 5.348090 -0.000007 -0.000001 -72.497500 30.416200 -0.184735 24.328600 0.000019 0.000005 13.483900 29.605000 -25.890500 22.291600 -0.000001 0.000005 -4.062270 5.057070 6.080670 12.994500 -0.242716 -4.980390 88.479100 4.801000 -72.399700 -5.348130 -0.000001 -0.000004 -70.157100 20.668900 -2.872230 -24.328900 0.000322 -0.000009 0.567418 1.609610 -19.454800 -22.291500 -0.000108 -0.000004 5.044720 5.279040 0.652499 -2.192480 -6.469440 -0.000000 -176.180000 1.187390 -2.617320 39.081100 -0.000007 -0.000012 0.207418 -0.576801 19.779000 40.985400 -0.000006 -0.000013 3.149640 10.203700 -72.328400 11.754300 -0.000000 0.000003 0.000106 0.165822 -9.851240 -2.192510 6.469440 -0.000001 -175.699000 7.671860 -177.690000 -39.081100 -0.002282 -0.040193 0.001750 0.007726 11.602200 -40.985400 0.000008 0.000006 -3.738480 2.270200 -67.743300 -11.754300 -0.000006 -0.000006 -0.009102 0.264470 -5.830470
0.000000 0.000000 0.000000 0.000000 0.000000 -0.000000 -0.134938 92.935600 -0.136736 86.555200 0.308224 0.779851 15.735700 0.000005 -0.000001 65.299600 86.936000 -63.379500 8.984550 -0.406207 -0.000000 -2.151000 -2.726120 3.789010 16.377300 -0.000001 -0.000001 4.747640 1.830910 -1.810510 6.456720 -0.000001 -0.000000 1.250960 1.607990 -1.754760 12.994200 -0.242716 4.980390 -92.628000 7.979080 -71.702800 5.348090 -0.000007 -0.000001 -72.504900 30.329500 -0.288241 24.328600 0.000019 0.000005 13.563100 29.716100 -25.950800 22.291600 -0.000001 0.000005 -3.838820 5.056030 6.104030 12.994500 -0.242716 -4.980390 88.448200 4.875120 -72.319300 -5.348130 -0.000001 -0.000004 -69.535900 18.701700 -2.835560 -24.328900 0.000322 -0.000009 0.612169 1.724830 -19.575200 -22.291500 -0.000108 -0.000004 5.139660 5.272980 0.817420 -2.192480 -6.469440 -0.000000 -176.107000 1.276230 -2.704830 39.081100 -0.000007 -0.000012 0.206579 -0.574914 19.764800 40.985400 -0.000006 -0.000013 3.079530 10.217700 -72.334600 11.754300 -0.000000 0.000003 0.000051 0.166756 -9.813310 -2.192510 6.469440 -0.000001 -175.615000 7.706590 -177.685000 -39.081100 -0.002282 -0.040193 0.001142 0.010835 11.447800 -40.985400 0.000008 0.000006 -3.713300 2.192030 -67.675400 -11.754300 -0.000006 -0.000006 -0.009086 0.264347 -5.835470
0.000000 0.000000 0.000000 0.000000 0.000000 -0.000000 -0.219504 92.933700 -0.191302 86.537900 0.386369 0.675726 15.735700 0.000005 -0.000001 65.102300 86.943800 -63.193800 8.984550 -0.406207 -0.000000 -2.174170 -2.738060 3.765180 16.377300 -0.000001 -0.000001 4.458470 1.685330 -1.624820 6.456720 -0.000001 -0.000000 1.013520 1.434250 -1.270220 12.994200 -0.242716 4.980390 -92.625300 7.969510 -71.700600 5.348090 -0.000007 -0.000001 -72.473600 30.282900 -0.411032 24.328600 0.000019 0.000005 13.572600 29.666400 -26.001500 22.291600 -0.000001 0.000005 -3.876110 5.052850 6.174380 12.994500 -0.242716 -4.980390 88.410500 4.969370 -72.237100 -5.348130 -0.000001 -0.000004 -68.739500 16.370500 -2.960050 -24.328900 0.000322 -0.000009 0.696564 1.958350 -19.611400 -22.291500 -0.000108 -0.000004 5.122880 5.268810 0.930477 -2.192480 -6.469440 -0.000000 -176.037000 1.428850 -2.902410 39.081100 -0.000007 -0.000012 0.208126 -0.576906 19.837900 40.985400 -0.000006 -0.000013 3.010950 10.174700 -72.265300 11.754300 -0.000000 0.000003 0.000261 0.163118 -9.961070 -2.192510 6.469440 -0.000001 -175.484000 7.664300 -177.838000 -39.081100 -0.002282 -0.040193 0.002454 0.004358 11.446500 -40.985400 0.000008 0.000006 -3.544680 2.020540 -67.643100 -11.754300 -0.000006 -0.000006 -0.008829 0.262340 -5.917510
0.000000 0.000000 0.000000 0.000000 0.000000 -0.000000 -0.308071 92.939600 -0.260190 86.556000 0.502817 0.593812 15.735700 0.000005 -0.000001 64.681200 86.938600 -62.796500 8.984550 -0.406207 -0.000000 -2.183810 -2.781260 3.716600 16.377300 -0.000001 -0.000001 4.223250 1.541230 -1.446450 6.456720 -0.000001 -0.000000 0.632288 1.259090 -0.666453 12.994200 -0.242716 4.980390 -92.612400 7.940790 -71.723100 5.348090 -0.000007 -0.000001 -72.507500 30.173700 -0.465200 24.328600 0.000019 0.000005 13.573600 29.564100 -26.074000 22.291600 -0.000001 0.000005 -3.787300 5.051150 6.211740 12.994500 -0.242716 -4.980390 88.369500 5.064600 -72.128600 -5.348130 -0.000001 -0.000004 -67.766700 13.866600 -3.124720 -24.328900 0.000322 -0.000009 0.842500 2.341600 -19.817500 -22.291500 -0.000108 -0.000004 5.040220 5.261630 1.123690 -2.192480 -6.469440 -0.000000 -175.999000 1.561040 -3.063180 39.081100 -0.000007 -0.000012 0.209963 -0.580888 19.872900 40.985400 -0.000006 -0.000013 2.931010 10.140800 -72.331900 11.754300 -0.000000 0.000003 -0.000006 0.167722 -9.774080 -2.192510 6.469440 -0.000001 -175.410000 7.778680 -177.963000 -39.081100 -0.002282 -0.040193 0.003375 -0.000193 11.437500 -40.985400 0.000008 0.000006 -3.365970 1.994440 -67.676800 -11.754300 -0.000006 -0.000006 -0.009033 0.263929 -5.852570
